<?xml version="1.0" standalone="no"?>
<!DOCTYPE svg PUBLIC "-//W3C//DTD SVG 20010904//EN"
 "http://www.w3.org/TR/2001/REC-SVG-20010904/DTD/svg10.dtd">
<svg version="1.0" xmlns="http://www.w3.org/2000/svg"
 width="500.000000pt" height="500.000000pt" viewBox="0 0 500.000000 500.000000"
 preserveAspectRatio="xMidYMid meet">
<metadata>
Created by potrace 1.11, written by Peter Selinger 2001-2013
</metadata>
<g transform="translate(0.000000,500.000000) scale(0.100000,-0.100000)"
fill="#000000" stroke="none">
<path d="M2497 2589 c-450 -397 -816 -723 -814 -726 3 -2 369 316 814 707 912
804 840 740 828 740 -6 0 -378 -325 -828 -721z"/>
<path d="M1625 3225 c6 -2 22 -6 38 -9 l27 -6 0 -290 0 -289 -32 -10 c-28 -8
-21 -9 42 -9 63 0 70 1 43 9 l-33 10 1 262 c0 144 3 257 5 251 3 -6 49 -127
104 -269 97 -251 106 -273 114 -264 2 2 49 128 105 279 56 151 104 277 107
279 2 2 4 -118 4 -267 l0 -271 -32 -10 c-25 -7 -6 -9 82 -9 63 0 106 3 95 5
-45 11 -45 12 -45 309 l0 283 33 10 c27 8 19 9 -49 10 l-81 1 -89 -239 c-49
-132 -91 -237 -94 -234 -3 2 -46 109 -96 236 l-90 232 -85 2 c-46 1 -79 0 -74
-2z"/>
<path d="M2775 2553 c43 -11 45 -24 45 -302 0 -146 -4 -271 -8 -278 -4 -7 -19
-16 -32 -22 -36 -14 304 -14 371 0 171 37 200 250 39 298 l-42 12 33 17 c52
27 74 65 74 127 0 64 -23 100 -81 130 -34 18 -61 20 -229 22 -104 1 -181 -1
-170 -4z m321 -19 c44 -21 64 -59 64 -123 0 -108 -39 -141 -167 -141 l-83 0 0
130 c0 112 2 130 18 139 27 16 130 13 168 -5z m34 -302 c43 -21 60 -53 60
-117 0 -103 -53 -154 -169 -163 -111 -8 -111 -7 -111 158 l0 140 93 0 c68 0
101 -5 127 -18z"/>
</g>
</svg>
